<?xml version="1.0" encoding="UTF-8"?>
<svg id="Capa_2" data-name="Capa 2" xmlns="http://www.w3.org/2000/svg" viewBox="0 0 142.5 29.77">
  <defs>
    <style>
      .cls-1 {
        fill: #fff;
      }
    </style>
  </defs>
  <g id="Capa_1-2" data-name="Capa 1">
    <g>
      <path class="cls-1" d="M142.5,17.93c0,6.54-5.3,11.85-11.85,11.85s-11.85-5.3-11.85-11.85,5.3-11.85,11.85-11.85,11.85,5.3,11.85,11.85ZM131.53,24.18c1.82-.24,3.29-1.22,4.19-2.78,1.14-1.98,1.21-4.45.19-6.49-1.06-2.13-3.18-3.36-5.53-3.28-2.07.07-3.91,1.12-4.88,2.98s-1.08,4.21-.17,6.17c1.12,2.4,3.55,3.77,6.21,3.41Z"/>
      <polygon class="cls-1" points="112.56 6.7 119.58 6.72 110.37 29.15 103.65 29.16 94.43 6.71 101.45 6.7 107.01 21.96 112.56 6.7"/>
      <path class="cls-1" d="M95.19,17.93c0,6.54-5.3,11.85-11.85,11.85s-11.85-5.3-11.85-11.85,5.3-11.85,11.85-11.85,11.85,5.3,11.85,11.85ZM82.88,24.21c2.69.23,5.03-1.26,5.96-3.71.61-1.61.64-3.38.03-4.99-.93-2.46-3.25-4-5.85-3.89-2.31.1-4.26,1.42-5.12,3.58-.59,1.49-.69,3.12-.23,4.67.7,2.37,2.68,4.13,5.21,4.34Z"/>
      <path class="cls-1" d="M60.94,12.77c-1.61-1.2-3.69-1.46-5.52-.71-1.74.71-2.84,2.33-2.91,4.21v12.88s-6.15,0-6.15,0V6.71s6.15,0,6.15,0l.03,3.15c2.18-2.74,5.62-3.95,9.05-3.38,4.43.73,7.27,4.18,7.31,8.69v13.98s-6.14,0-6.14,0v-12.79c-.04-1.45-.62-2.71-1.81-3.59Z"/>
      <path class="cls-1" d="M39.81,22.24l3.89,2.99c-.65.73-1.35,1.34-2.2,1.87-2.8,1.76-6.06,2.64-9.37,2.39-2.09-.16-4.05-.68-5.85-1.72-4.28-2.48-6.17-7.2-5.32-12.01.74-4.22,3.74-7.58,7.84-8.85,2.75-.84,5.67-.75,8.39.17,4.08,1.5,6.34,4.92,6.96,9.2l-15.69,6.52c1.26,1.27,2.97,1.79,4.71,1.81,1.48.05,2.88-.16,4.2-.82l2.43-1.54ZM26.8,18.82l10.69-4.44c-.96-2.22-3.11-3.36-5.43-3.11-2.02.21-3.73,1.29-4.62,3.14-.67,1.35-.9,2.91-.64,4.41Z"/>
      <polygon class="cls-1" points="20.18 23.48 20.19 29.15 0 29.15 0 0 6.22 0 6.22 23.48 20.18 23.48"/>
    </g>
  </g>
</svg>